<?xml version="1.0" encoding="UTF-8" standalone="no"?>
<!-- Created with Inkscape (http://www.inkscape.org/) -->

<svg
   width="300"
   height="300"
   viewBox="0 0 79.374998 79.375002"
   version="1.1"
   id="svg5"
   xmlns="http://www.w3.org/2000/svg"
   xmlns:svg="http://www.w3.org/2000/svg">
  <defs
     id="defs2" />
  <g
     id="layer1"
     transform="translate(93.26989,-51.290272)">
    <rect
       style="fill:none;fill-rule:evenodd;stroke:none;stroke-width:0.0792845"
       id="rect50"
       width="79.375"
       height="79.375"
       x="-93.26989"
       y="51.290272" />
    <g
       id="g23961"
       transform="translate(348.66957,-493.87911)">
      <path
         id="path23953"
         style="fill:#000000;stroke:none;stroke-width:0.264582px;stroke-linecap:butt;stroke-linejoin:miter;stroke-opacity:1"
         d="m -429.43048,575.40804 c -0.71423,0.76873 -1.43883,1.60198 0.68044,3.57102 16.29488,15.13972 38.61613,33.83912 39.06459,33.35647 0.44848,-0.48266 -19.79229,-21.09613 -36.12657,-36.27246 -2.1829,-2.02813 -2.90422,-1.42375 -3.61846,-0.65503 z m 1.02907,1.07189 c 0.39431,-0.4242 1.49184,-0.0453 2.45157,0.84642 0.95973,0.89169 1.41819,1.95848 1.0241,2.38285 -0.39432,0.42418 -1.49187,0.0453 -2.45161,-0.84644 -0.95968,-0.89169 -1.41818,-1.95847 -1.02406,-2.38283 z" />
      <path
         style="fill:none;stroke:#000000;stroke-width:2.11667;stroke-linecap:round;stroke-linejoin:round;stroke-miterlimit:4;stroke-dasharray:none;stroke-opacity:1"
         d="m -429.76866,580.14284 c 0,0 6.11976,-4.89299 8.62574,-5.02545 4.39354,-0.23224 3.41485,2.11423 7.92718,4.35076 5.85574,2.90238 11.00606,-8.9605 20.10585,-9.60971 7.07838,-0.50499 13.8623,-8.47821 18.31356,-11.4311 0.71176,9.30491 -4.46647,12.28276 -15.17567,15.64687 19.07738,-7.1548 9.43975,6.68426 -2.62008,6.81739 13.40691,-3.85931 7.13124,8.18806 -8.97489,9.92239"
         id="path23955" />
    </g>
  </g>
</svg>
